<svg height="1024pt" preserveAspectRatio="xMidYMid meet" viewBox="0 0 1024 1024" width="1024pt" xmlns="http://www.w3.org/2000/svg"><path d="m0 5120v-5120h5120 5120v5120 5120h-5120-5120zm6354 2095c363-63 662-305 800-648 46-115 66-207 73-344 7-128-5-225-43-352-49-162-138-314-255-432-38-38-69-71-69-73s22-6 50-9c278-33 573-212 741-450 85-120 152-267 183-399 64-275 34-532-91-783-164-329-478-554-846-604-54-8-621-11-1780-11-1446 0-1717 2-1800 15-426 64-776 373-899 795-24 83-48 246-48 330 0 77 22 219 48 310 87 300 301 557 577 693 126 63 284 107 383 107 88 0 89 1 97 98 39 505 410 925 896 1016 119 22 311 21 419-3 97-22 187-54 277-100 34-17 64-31 67-31 2 0 7 21 11 47 18 122 103 310 192 425 170 221 391 353 683 407 74 14 242 12 334-4z" transform="matrix(.1 0 0 -.1 0 1024)"/></svg>