<svg height="1024pt" preserveAspectRatio="xMidYMid meet" viewBox="0 0 1024 1024" width="1024pt" xmlns="http://www.w3.org/2000/svg"><path d="m0 5120v-5120h5120 5120v5120 5120h-5120-5120zm6420 2030c205-49 371-143 517-292 133-136 217-288 271-487 21-83 25-117 25-246s-4-163-25-246c-54-200-133-342-271-486l-78-82 48-6c172-24 362-101 499-203 548-408 618-1205 150-1701-168-177-421-303-666-331-66-8-619-10-1835-8-1894 4-1766 0-1935 58-268 93-496 293-625 550-77 153-113 291-122 471-19 372 149 728 452 957 150 114 370 196 556 209l86 6 6 91c18 266 145 536 341 724 148 142 298 227 495 280 85 23 115 26 261 25 148 0 175-3 265-27 55-15 144-48 197-73 54-25 99-44 101-42 1 2 12 44 25 93 79 319 313 589 621 715 62 26 204 63 286 75 67 10 273-4 355-24z" transform="matrix(.1 0 0 -.1 0 1024)"/></svg>