<svg height="1024pt" preserveAspectRatio="xMidYMid meet" viewBox="0 0 1024 1024" width="1024pt" xmlns="http://www.w3.org/2000/svg"><g transform="matrix(.1 0 0 -.1 0 1024)"><path d="m5900 8166c0-2 8-10 18-17 15-13 16-12 3 4s-21 21-21 13z"/><path d="m6370 7859c-25-3-64-9-88-13-24-3-47-8-51-10-4-3-23-8-42-11-151-25-432-169-567-290-27-25-56-45-63-45s-10-3-7-6c8-7-81-100-93-97-5 2-8-1-6-5 1-5-7-21-18-36-29-41-73-99-85-113-6-7-8-13-5-13s-2-11-11-25-21-22-27-18c-6 3-7 1-3-5s-5-31-20-54c-15-24-27-44-26-45 5-9-26-62-33-56-4 5-6 3-2-2 4-9-32-133-60-205-7-18-19-86-22-122-1-13-20-6-104 36-56 29-114 56-127 60-14 5-27 9-30 10s-32 10-65 20-67 21-75 24-24 7-35 8c-11 2-49 9-85 15-164 28-348 26-499-5-33-7-72-12-85-11-14 0-23-1-20-4 2-3-40-19-93-37-156-51-376-175-482-273-21-20-52-48-68-62-75-69-184-208-251-324-40-67-119-237-127-273-3-9-16-57-29-107-34-125-50-232-50-332 0-47-2-53-20-54-64-2-137-7-181-14-609-89-1104-558-1234-1170-6-27-14-63-17-80-3-16-8-106-10-200-4-219 16-361 77-538 109-318 319-589 600-775 85-56 243-133 321-157 105-32 200-55 256-61 31-3 60-8 63-10 10-6 4656-4 4704 2 87 11 244 47 321 74 91 32 246 106 298 142 159 111 315 257 394 368 26 36 49 67 52 70 25 24 146 275 175 364 51 160 68 269 69 446 1 144-8 292-19 309-1 3-6 22-9 41-18 119-125 386-193 487-13 19-23 36-23 38 0 7-66 93-124 160-41 49-117 122-209 202-40 34-184 121-272 163-81 39-194 81-260 96-22 5-72 15-105 20-19 4-42 8-50 9-8 2-28 4-45 4l-29 1 49 48c65 62 155 159 155 166 0 6 24 37 55 71 11 13 21 28 23 34 1 7 13 29 26 49 45 72 125 257 141 329 42 183 47 218 50 359 2 83-1 171-5 195s-11 62-14 84-11 58-16 80c-6 22-15 57-21 77-31 125-133 324-232 453-42 54-237 255-248 255-4 0-30 18-58 40s-53 40-56 40-24 12-48 27c-23 15-44 28-47 28-3 1-34 15-70 32-96 45-251 96-335 109-16 2-46 7-65 11-49 9-306 11-360 2z"/><path d="m4676 7238c3-5 10-6 15-3 13 9 11 12-6 12-8 0-12-4-9-9z"/><path d="m4506 7162c-3-5 1-9 9-9s12 4 9 9c-3 4-7 8-9 8s-6-4-9-8z"/></g></svg>