<svg viewBox="0 0 24 24" xmlns="http://www.w3.org/2000/svg"><g fill="none" stroke="#ebebeb" stroke-linecap="round" stroke-linejoin="round" stroke-width="2"><path d="m3 14.9c.05-1.76 1.5-3.14 3.26-3.1.32-1.27 1.31-2.27 2.57-2.61 1.31-.4 2.73-.14 3.81.69 1.02.76 1.5 2.05 1.24 3.3h.69c1.33 0 2.41 1.08 2.41 2.41s-1.08 2.41-2.41 2.41h-8.31c-1.76.04-3.22-1.35-3.26-3.11z"/><path d="m10.26 8.79c.33-1.27 1.31-2.27 2.57-2.61.4-.12.82-.18 1.24-.18.93 0 1.84.3 2.57.87 1.02.77 1.5 2.05 1.24 3.3h.69c1.33 0 2.42 1.08 2.42 2.41s-1.08 2.42-2.41 2.42h-1.63"/></g></svg>