<svg viewBox="0 0 24 24" xmlns="http://www.w3.org/2000/svg"><path d="m8.65 22c-.52 0-1.03-.23-1.4-.63l-4.66-4.66c-.38-.34-.61-.88-.59-1.43v-6.57c-.02-.53.21-1.07.63-1.44l4.66-4.68c.33-.37.85-.61 1.42-.59h6.59c.52-.02 1.07.21 1.44.63l4.66 4.66c.38.34.61.87.59 1.43v6.57c.02.53-.21 1.07-.63 1.44l-4.66 4.66c-.34.38-.86.6-1.43.59h-6.57s-.03 0-.05 0zm.06-18-4.7 4.71v6.59s4.7 4.69 4.7 4.69h6.59s4.69-4.7 4.69-4.7v-6.59s-4.7-4.69-4.7-4.69h-6.58zm.03-.04s0 0 0 0z" fill="#e7324c"/><g fill="#fff"><path d="m12 13c-.55 0-1-.45-1-1v-4c0-.55.45-1 1-1s1 .45 1 1v4c0 .55-.45 1-1 1z"/><path d="m12 17c-.55 0-1-.45-1-1s.44-1 .99-1 1 .45 1 1-.45 1-1 1z"/></g></svg>