<svg viewBox="0 0 24 24" xmlns="http://www.w3.org/2000/svg"><g fill="none" stroke-linecap="round" stroke-linejoin="round" stroke-width="2"><path d="m7.32 3.01h-.2c1.37 1.2 1.65 3.24.64 4.76-1.05 1.54-3.03 2.15-4.76 1.46.95 2.11 3.3 3.22 5.53 2.62 2.23-.53 3.71-2.66 3.43-4.94-.36-2.28-2.33-3.94-4.64-3.91z" stroke="#fc0"/><path d="m3 17.9c.05-1.76 1.5-3.14 3.26-3.1.32-1.27 1.31-2.27 2.57-2.61 1.31-.4 2.73-.14 3.81.69 1.02.76 1.5 2.05 1.24 3.3h.69c1.33 0 2.41 1.08 2.41 2.41s-1.08 2.41-2.41 2.41h-8.31c-1.76.04-3.22-1.35-3.26-3.11z" stroke="#ebebeb"/><path d="m10.26 11.79c.33-1.27 1.31-2.27 2.57-2.61.4-.12.82-.18 1.24-.18.93 0 1.84.3 2.57.87 1.02.77 1.5 2.05 1.24 3.3h.69c1.33 0 2.42 1.08 2.42 2.41s-1.08 2.42-2.41 2.42h-1.63" stroke="#ebebeb"/><g stroke="#fc0"><path d="m17 4h-2m1 1v-2"/><path d="m21 7h-2m1 1v-2"/></g></g></svg>