<svg viewBox="0 0 24 24" xmlns="http://www.w3.org/2000/svg"><path d="m8.14 20c-5.19.08-5.62-7.43-.61-8.15.56-1.27 1.68-2.25 3.05-2.62 2.72-.9 6.25.95 6.39 3.97 4.25.53 3.93 6.72-.37 6.8h-8.35c-.04 0-.08 0-.12 0zm.04-6.2c-1.94-.11-2.88 2.35-1.63 3.63.39.38.98.57 1.69.57h8.37c1.86-.03 1.87-2.79 0-2.82h-.7c-.62.02-1.13-.61-.98-1.21.46-2.06-2.02-3.44-3.8-2.82-.95.26-1.67.98-1.9 1.9-.12.45-.51.8-1 .75-.02 0-.04 0-.06 0z" fill="#ebebeb"/><g fill="#f4ebc8"><path d="m19.38 11.5c-.18 0-.36-.04-.53-.13-.51-.28-.68-.89-.39-1.37.42-.69.54-1.5.32-2.28s-.74-1.42-1.48-1.82c-.73-.4-1.59-.51-2.41-.3s-1.5.7-1.92 1.4c-.29.48-.94.64-1.44.37-.51-.28-.68-.89-.39-1.37.71-1.16 1.85-1.98 3.21-2.33s2.79-.17 4.01.5c2.52 1.38 3.39 4.44 1.93 6.83-.2.32-.55.5-.92.5z"/><path d="m5 11.5c-.55 0-1-.45-1-1-.55 0-1-.45-1-1s.45-1 1-1c0-.55.45-1 1-1s1 .45 1 1c.55 0 1 .45 1 1s-.45 1-1 1c0 .55-.45 1-1 1z"/><path d="m8 7.5c-.55 0-1-.45-1-1-.55 0-1-.45-1-1s.45-1 1-1c0-.55.45-1 1-1s1 .45 1 1c.55 0 1 .45 1 1s-.45 1-1 1c0 .55-.45 1-1 1z"/></g></svg>