<svg viewBox="0 0 24 24" xmlns="http://www.w3.org/2000/svg"><g fill="none" stroke-linecap="round" stroke-linejoin="round" stroke-width="2"><path d="m2 18.9c.05-1.76 1.5-3.14 3.26-3.1.32-1.27 1.31-2.27 2.57-2.61 1.31-.4 2.73-.14 3.81.69 1.02.76 1.5 2.05 1.24 3.3h.69c1.33 0 2.41 1.08 2.41 2.41s-1.08 2.41-2.41 2.41h-8.31c-1.76.04-3.22-1.35-3.26-3.11z" stroke="#ebebeb"/><g stroke="#fc0"><path d="m5 6.79.87.5m11.43-3.79-.5.87m2.93 10.93.87.5m-10.15-13.25.26.96m10.83 5.44-.96.26"/><path d="m9.33 9.29c1.1-1.91 3.55-2.57 5.46-1.46s2.57 3.55 1.46 5.46"/></g></g></svg>