<svg viewBox="0 0 24 24" xmlns="http://www.w3.org/2000/svg"><g fill="#fff"><path d="m12 8c-.21 0-.42-.07-.6-.2-2.3-1.73-5.5-1.73-7.8 0-.44.33-1.07.24-1.4-.2s-.24-1.07.2-1.4c3-2.26 7.2-2.26 10.2 0 .44.33.53.96.2 1.4-.2.26-.5.4-.8.4z"/><path d="m16.5 19.5c-1.8 0-3.6-.57-5.1-1.7-2.3-1.73-5.5-1.73-7.8 0-.44.33-1.07.24-1.4-.2s-.24-1.07.2-1.41c3-2.26 7.2-2.26 10.2 0 2.3 1.73 5.5 1.73 7.8 0 .44-.33 1.07-.24 1.4.2s.24 1.07-.2 1.41c-1.5 1.13-3.3 1.7-5.1 1.7z"/><path d="m12 13c-.21 0-.42-.07-.6-.2-2.3-1.73-5.5-1.73-7.8 0-.44.33-1.07.24-1.4-.2s-.24-1.07.2-1.4c3-2.26 7.2-2.26 10.2 0 .44.33.53.96.2 1.4-.2.26-.5.4-.8.4z"/></g><path d="m18 15c-.68 0-1.36-.18-1.99-.56-.93-.56-1.59-1.47-1.87-2.55s-.14-2.22.4-3.19c0-.02.02-.03.03-.05l2.6-4.2c.37-.6 1.31-.6 1.68 0l2.6 4.2c.74 1.34.74 2.95.03 4.24-.74 1.35-2.09 2.11-3.48 2.11zm-1.74-5.23c-.26.48-.32 1.04-.19 1.57.14.54.47 1 .93 1.27.96.58 2.18.23 2.73-.77.35-.65.35-1.45 0-2.1l-1.73-2.8-1.75 2.82z" fill="#3cabf8"/></svg>