<svg viewBox="0 0 24 24" xmlns="http://www.w3.org/2000/svg"><path d="m16 18c-.55 0-1-.45-1-1 0-1.65-1.35-3-3-3s-3 1.35-3 3c0 .55-.45 1-1 1s-1-.45-1-1c0-2.76 2.24-5 5-5s5 2.24 5 5c0 .55-.45 1-1 1z" fill="#f4ebc8"/><g fill="#fff"><path d="m21 22h-18c-.55 0-1-.45-1-1s.45-1 1-1h18c.55 0 1 .45 1 1s-.45 1-1 1z"/><path d="m12 10c-.55 0-1-.45-1-1v-3.59l-1.29 1.29c-.39.39-1.02.39-1.41 0s-.39-1.02 0-1.41l3-3s.04-.04.05-.05c.15-.13.34-.21.53-.24h.19c.23.02.46.11.64.29l3 3c.39.39.39 1.02 0 1.41s-1.02.39-1.41 0l-1.29-1.29v3.59c0 .55-.45 1-1 1z"/></g></svg>