<svg height="24" viewBox="0 0 24 24" width="24" xmlns="http://www.w3.org/2000/svg"><path d="m3 21h18" fill="none" stroke="#fff" stroke-linecap="round" stroke-linejoin="round" stroke-width="2"/><path d="m12 9v-6l-3 3m6 0-3-3" fill="none" stroke="#fff" stroke-linecap="round" stroke-linejoin="round" stroke-width="2"/><path d="m18 18h-12c0-3.31 2.69-6 6-6s6 2.69 6 6z" fill="#f4ebc8"/><path d="m9.34 18h-3.34c0-1.31.43-2.59 1.23-3.64.78-1.02 1.87-1.77 3.1-2.13-.86 1.07-1.33 2.4-1.33 3.77 0 .68.11 1.36.34 2z" opacity=".03"/><circle cx="15.11" cy="16.32" opacity=".03" r=".66"/><circle cx="13.38" cy="17.29" opacity=".03" r=".45"/><circle cx="11.13" cy="16.56" opacity=".03" r=".21"/><circle cx="14.04" cy="14.49" opacity=".03" r=".21"/><circle cx="11.33" cy="14.28" opacity=".03" r=".69"/></svg>