<?xml version="1.0" encoding="UTF-8"?>
<svg id="a" data-name="Ebene 1" xmlns="http://www.w3.org/2000/svg" width="24" height="24" viewBox="0 0 24 24">
  <line id="b" data-name="Linie 5" x1="3" y1="21" x2="21" y2="21" fill="none" stroke="#fff" stroke-linecap="round" stroke-linejoin="round" stroke-width="2"/>
  <path id="c" data-name="Pfad 129" d="M12,9V3l-3,3m6,0l-3-3" fill="none" stroke="#fff" stroke-linecap="round" stroke-linejoin="round" stroke-width="2"/>
  <path id="d" data-name="Differenzmenge 12" d="M18,18H6c0-3.31,2.69-6,6-6,3.31,0,6,2.69,6,6Z" fill="#f4ebc8"/>
  <path id="e" data-name="Differenzmenge 14" d="M9.34,18h-3.34c0-1.31,.43-2.59,1.23-3.64,.78-1.02,1.87-1.77,3.1-2.13-.86,1.07-1.33,2.4-1.33,3.77,0,.68,.11,1.36,.34,2h0Z" isolation="isolate" opacity=".03"/>
  <circle id="f" data-name="Ellipse 207" cx="15.11" cy="16.32" r=".66" isolation="isolate" opacity=".03"/>
  <circle id="g" data-name="Ellipse 208" cx="13.38" cy="17.29" r=".45" isolation="isolate" opacity=".03"/>
  <circle id="h" data-name="Ellipse 214" cx="11.13" cy="16.56" r=".21" isolation="isolate" opacity=".03"/>
  <circle id="i" data-name="Ellipse 210" cx="14.04" cy="14.49" r=".21" isolation="isolate" opacity=".03"/>
  <circle id="j" data-name="Ellipse 213" cx="11.33" cy="14.28" r=".69" isolation="isolate" opacity=".03"/>
</svg>