<svg viewBox="0 0 24 24" xmlns="http://www.w3.org/2000/svg"><g fill="none" stroke-linecap="round" stroke-linejoin="round" stroke-width="2"><path d="m10.33 4.32c.23-.93 1.16-1.49 2.08-1.27.63.15 1.11.64 1.27 1.27.22.93 1.16 1.49 2.08 1.27.17-.04.34-.11.49-.2.81-.49 1.88-.24 2.37.58.33.55.33 1.24 0 1.79-.5.81-.24 1.87.58 2.37.15.09.32.16.49.2.93.23 1.49 1.16 1.27 2.08-.15.63-.64 1.11-1.27 1.27-.93.22-1.49 1.16-1.27 2.08.04.17.11.34.2.49.49.81.24 1.88-.58 2.37-.55.33-1.24.33-1.79 0-.81-.5-1.87-.24-2.37.58-.09.15-.16.32-.2.49-.23.93-1.16 1.49-2.08 1.27-.63-.15-1.11-.64-1.27-1.27-.22-.93-1.16-1.49-2.08-1.27-.17.04-.34.11-.49.2-.81.49-1.88.24-2.37-.58-.33-.55-.33-1.24 0-1.79.5-.81.24-1.87-.58-2.37-.15-.09-.32-.16-.49-.2-.93-.23-1.49-1.16-1.27-2.08.15-.63.64-1.11 1.27-1.27.93-.22 1.49-1.16 1.27-2.08-.04-.17-.11-.34-.2-.49-.49-.81-.24-1.88.58-2.37.55-.33 1.24-.33 1.79 0 .81.5 1.87.24 2.37-.57.09-.15.16-.32.2-.49z" stroke="#fff"/><circle cx="12" cy="12" r="3" stroke="#3cabf8"/></g></svg>