<svg viewBox="0 0 24 24" xmlns="http://www.w3.org/2000/svg"><path d="m21 22h-18c-.55 0-1-.45-1-1s.45-1 1-1h18c.55 0 1 .45 1 1s-.45 1-1 1z" fill="#fff"/><path d="m12 10c-.55 0-1-.45-1-1v-3.59l-1.29 1.29c-.39.39-1.02.39-1.41 0s-.39-1.02 0-1.41l3-3s.04-.04.05-.05c.15-.13.34-.21.53-.24h.19c.23.02.46.11.64.29l3 3c.39.39.39 1.02 0 1.41s-1.02.39-1.41 0l-1.29-1.29v3.59c0 .55-.45 1-1 1z" fill="#fff"/><g fill="#fc0"><path d="m21 16h-1c-.55 0-1 .45-1 1s.45 1 1 1h1c.55 0 1-.45 1-1s-.45-1-1-1z"/><path d="m7.01 10.59-.7-.7c-.39-.39-1.02-.39-1.41 0s-.39 1.02 0 1.41l.7.7c.2.2.45.29.71.29s.51-.1.71-.29c.39-.39.39-1.02 0-1.41z"/><path d="m4 16h-1c-.55 0-1 .45-1 1s.45 1 1 1h1c.55 0 1-.45 1-1s-.45-1-1-1z"/><path d="m12 12c-2.76 0-5 2.24-5 5v1h10v-1c0-2.76-2.24-5-5-5z"/><path d="m19.11 9.89c-.39-.39-1.02-.39-1.41 0l-.7.7c-.39.39-.39 1.02 0 1.41.2.2.45.29.71.29s.51-.1.71-.29l.7-.7c.39-.39.39-1.02 0-1.41z"/></g></svg>