<svg viewBox="0 0 24 24" xmlns="http://www.w3.org/2000/svg"><path d="m21 13h-1c-.55 0-1-.45-1-1s.45-1 1-1h1c.55 0 1 .45 1 1s-.45 1-1 1zm-17 0h-1c-.55 0-1-.45-1-1s.45-1 1-1h1c.55 0 1 .45 1 1s-.45 1-1 1zm13.7-5.7c-.26 0-.51-.1-.71-.29-.39-.39-.39-1.02 0-1.41l.7-.7c.39-.39 1.02-.39 1.41 0s.39 1.02 0 1.41l-.7.7c-.2.2-.45.29-.71.29zm-11.4 0c-.26 0-.51-.1-.71-.29l-.7-.7c-.39-.39-.39-1.02 0-1.41s1.02-.39 1.41 0l.7.7c.39.39.39 1.02 0 1.41-.2.2-.45.29-.71.29z" fill="#fc0"/><path d="m12 5c-.55 0-1-.45-1-1v-1c0-.55.45-1 1-1s1 .45 1 1v1c0 .55-.45 1-1 1z" fill="#fc0"/><path d="m16 22h-1c-.41 0-.78-.25-.93-.63l-2-5c-.21-.51.04-1.09.56-1.3s1.1.04 1.3.56l1.57 3.93 1.57-3.93c.21-.51.78-.76 1.3-.56.51.21.76.79.56 1.3l-2 5c-.15.38-.52.63-.93.63z" fill="#fff"/><path d="m8 22c-1.65 0-3-1.35-3-3v-3c0-.55.45-1 1-1s1 .45 1 1v3c0 .55.45 1 1 1s1-.45 1-1v-3c0-.55.45-1 1-1s1 .45 1 1v3c0 1.65-1.35 3-3 3z" fill="#fff"/><path d="m12 7c-2.76 0-5 2.24-5 5 0 .55.45 1 1 1s1-.45 1-1c0-1.66 1.34-3 3-3s3 1.34 3 3c0 .55.45 1 1 1s1-.45 1-1c0-2.76-2.24-5-5-5z" fill="#fc0"/></svg>