<svg viewBox="0 0 24 24" xmlns="http://www.w3.org/2000/svg"><path d="m12 2c-5.51 0-10 4.49-10 10s4.49 10 10 10 10-4.49 10-10-4.49-10-10-10zm.99 17.93c-.04-.52-.46-.93-.99-.93s-.95.41-.99.93c-3.62-.45-6.5-3.32-6.95-6.95.52-.04.93-.46.93-.99s-.41-.95-.93-.99c.45-3.62 3.32-6.5 6.95-6.95.04.52.46.93.99.93s.95-.41.99-.93c3.62.45 6.5 3.32 6.95 6.95-.52.04-.93.46-.93.99s.41.95.93.99c-.45 3.62-3.32 6.5-6.95 6.95z" fill="#fff"/><path d="m15.39 11.55-2.5-5c-.17-.34-.52-.55-.9-.55s-.73.21-.9.55l-2.5 5c-.14.28-.14.61 0 .89l2.5 5c.17.34.52.55.9.55s.73-.21.9-.55l2.5-5c.14-.28.14-.61 0-.89zm-3.39 3.21-1.38-2.76s2.76 0 2.76 0z" fill="#e7324c"/></svg>