<?xml version="1.0" standalone="no"?>
<!DOCTYPE svg PUBLIC "-//W3C//DTD SVG 20010904//EN"
 "http://www.w3.org/TR/2001/REC-SVG-20010904/DTD/svg10.dtd">
<svg version="1.0" xmlns="http://www.w3.org/2000/svg"
 width="1024.000000pt" height="1024.000000pt" viewBox="0 0 1024.000000 1024.000000"
 preserveAspectRatio="xMidYMid meet">
<metadata>
Created by potrace 1.14, written by Peter Selinger 2001-2017
</metadata>
<g transform="translate(0.000000,1024.000000) scale(0.100000,-0.100000)"
fill="#000000" stroke="none">
<path d="M2099 10236 c-2 -2 -31 -6 -64 -10 -33 -3 -98 -13 -145 -22 -47 -8
-98 -18 -115 -21 -123 -21 -409 -127 -554 -204 -81 -43 -286 -172 -301 -188
-3 -3 -39 -33 -80 -65 -106 -84 -282 -265 -366 -377 -262 -347 -402 -692 -459
-1129 -11 -87 -13 -616 -12 -3140 2 -1669 6 -3048 10 -3065 8 -34 14 -70 23
-135 11 -81 61 -265 105 -386 210 -577 648 -1043 1224 -1301 213 -96 469 -162
700 -181 123 -10 6019 -9 6124 1 140 14 348 56 455 92 27 9 56 18 65 20 61 13
301 128 433 209 185 111 291 196 449 357 358 364 590 860 637 1364 10 108 9
6060 -1 6155 -13 119 -55 310 -98 446 -264 824 -980 1432 -1836 1559 -23 3
-57 9 -75 13 -34 6 -6111 15 -6119 8z"/>
</g>
</svg>
