<svg viewBox="0 0 24 24" xmlns="http://www.w3.org/2000/svg"><g fill="#fc0"><circle cx="12" cy="12" r="5"/><path d="m12 22c-.55 0-1-.45-1-1v-1c0-.55.45-1 1-1s1 .45 1 1v1c0 .55-.45 1-1 1zm6.4-2.6c-.26 0-.51-.1-.71-.29l-.7-.7c-.39-.39-.39-1.02 0-1.41s1.02-.39 1.41 0l.7.7c.39.39.39 1.02 0 1.41-.2.2-.45.29-.71.29zm-12.8 0c-.26 0-.51-.1-.71-.29-.39-.39-.39-1.02 0-1.41l.7-.7c.39-.39 1.02-.39 1.41 0s.39 1.02 0 1.41l-.7.7c-.2.19-.45.29-.71.29zm15.4-6.4h-1c-.55 0-1-.45-1-1s.45-1 1-1h1c.55 0 1 .45 1 1s-.45 1-1 1zm-17 0h-1c-.55 0-1-.45-1-1s.45-1 1-1h1c.55 0 1 .45 1 1s-.45 1-1 1zm13.7-5.7c-.26 0-.51-.1-.71-.29-.39-.39-.39-1.02 0-1.41l.7-.7c.39-.39 1.02-.39 1.41 0s.39 1.02 0 1.41l-.7.7c-.2.19-.45.29-.71.29zm-11.4 0c-.26 0-.51-.1-.71-.29l-.7-.7c-.39-.39-.39-1.02 0-1.41s1.02-.39 1.41 0l.7.7c.39.39.39 1.02 0 1.41-.2.2-.45.29-.71.29zm5.7-2.3c-.55 0-1-.45-1-1v-1c0-.55.45-1 1-1s1 .45 1 1v1c0 .55-.45 1-1 1z"/></g></svg>