<svg viewBox="0 0 24 24" xmlns="http://www.w3.org/2000/svg"><path d="m5.14 23c-5.19.08-5.62-7.43-.61-8.15.56-1.27 1.68-2.25 3.05-2.62 2.72-.9 6.25.95 6.39 3.97 4.25.53 3.93 6.72-.37 6.8h-8.35c-.04 0-.08 0-.12 0zm.04-6.2c-1.94-.11-2.88 2.35-1.63 3.63.39.38.98.57 1.69.57h8.37c1.86-.03 1.87-2.79 0-2.82h-.7c-.62.02-1.13-.61-.98-1.21.46-2.06-2.02-3.44-3.8-2.82-.95.26-1.67.98-1.9 1.9-.12.45-.51.8-1 .75-.02 0-.04 0-.06 0z" fill="#ebebeb"/><g fill="#fc0"><path d="m20.59 16.79c-.17 0-.34-.04-.5-.13l-.87-.5c-.48-.28-.64-.89-.37-1.37.28-.48.89-.64 1.37-.37l.87.5c.48.28.64.89.37 1.37-.19.32-.52.5-.87.5zm0-6.59c-.44 0-.85-.29-.97-.74-.14-.53.17-1.08.71-1.22l.96-.26c.53-.15 1.08.17 1.22.71.14.53-.17 1.08-.71 1.22l-.96.26c-.09.02-.17.03-.26.03zm-14.71-1.91c-.17 0-.34-.04-.5-.13l-.87-.5c-.48-.28-.64-.89-.37-1.37.28-.48.89-.64 1.37-.37l.87.5c.48.28.64.89.37 1.37-.19.32-.52.5-.87.5zm10.93-2.93c-.17 0-.34-.04-.5-.13-.48-.28-.64-.89-.37-1.37l.5-.87c.28-.48.89-.64 1.37-.37.48.28.64.89.37 1.37l-.5.87c-.19.32-.52.5-.87.5zm-6.09-.86c-.44 0-.85-.29-.97-.74l-.26-.96c-.14-.53.17-1.08.71-1.22.53-.14 1.08.17 1.22.71l.26.96c.14.53-.17 1.08-.71 1.22-.09.02-.17.03-.26.03z"/><path d="m16.04 14c-.16 0-.33-.04-.47-.13-.46-.28-.61-.89-.35-1.37.38-.69.48-1.5.29-2.28-.2-.77-.67-1.42-1.33-1.82-1.36-.83-3.11-.33-3.9 1.1-.26.48-.85.64-1.3.37-.46-.28-.61-.89-.35-1.37 1.31-2.39 4.23-3.21 6.5-1.83s3.05 4.44 1.74 6.83c-.18.32-.5.5-.82.5z"/></g></svg>