<svg viewBox="0 0 24 24" xmlns="http://www.w3.org/2000/svg"><path d="m11.99 21.5c-1.18 0-2.38-.3-3.48-.93-1.62-.93-2.78-2.45-3.27-4.25-.49-1.81-.24-3.7.69-5.32 0-.02.02-.03.03-.05l5.21-8.02c.37-.57 1.31-.57 1.68 0l5.2 8.02c1.27 2.2 1.27 4.89.03 7.04-1.29 2.25-3.66 3.51-6.08 3.51zm-4.34-9.49c-.66 1.15-.83 2.5-.48 3.78.35 1.29 1.18 2.37 2.33 3.04 1.16.67 2.51.84 3.8.5 1.29-.35 2.37-1.18 3.03-2.34.88-1.54.88-3.46 0-5l-4.34-6.99z" fill="#3cabf8"/><g fill="#fff"><path d="m10 17c-.26 0-.51-.1-.71-.29-.39-.39-.39-1.02 0-1.41l4-4c.39-.39 1.02-.39 1.41 0s.39 1.02 0 1.41l-4 4c-.2.2-.45.29-.71.29z"/><circle cx="14" cy="16" r="1"/><circle cx="10" cy="12" r="1"/></g></svg>