<svg viewBox="0 0 24 24" xmlns="http://www.w3.org/2000/svg"><path d="m12 22c-5.51 0-10-4.49-10-10s4.49-10 10-10 10 4.49 10 10-4.49 10-10 10zm0-18c-4.41 0-8 3.59-8 8s3.59 8 8 8 8-3.59 8-8-3.59-8-8-8z" fill="#fff"/><path d="m16.71 7.29c-.39-.39-1.02-.39-1.41 0l-2.59 2.59c-.06.06-.1.14-.14.21-.18-.05-.37-.09-.56-.09-1.1 0-2 .9-2 2s.9 2 2 2 2-.9 2-2c0-.2-.04-.38-.09-.56.07-.04.15-.08.21-.14l2.59-2.59c.39-.39.39-1.02 0-1.41z" fill="#fff"/><path d="m7 13c-.55 0-1-.45-1-1 0-3.31 2.69-6 6-6 .55 0 1 .45 1 1s-.45 1-1 1c-2.21 0-4 1.79-4 4 0 .55-.45 1-1 1z" fill="#3cabf8"/></svg>