<svg viewBox="0 0 24 24" xmlns="http://www.w3.org/2000/svg"><g fill="#3cabf8"><path d="m11 18.5c-.55 0-1 .45-1 1v1c0 .55.45 1 1 1 .55 0 1-.45 1-1v-1c0-.55-.45-1-1-1z"/><path d="m11 11.5c-.55 0-1 .45-1 1v1c0 .55.45 1 1 1 .55 0 1-.45 1-1v-1c0-.55-.45-1-1-1z"/><path d="m14 13.5c-.55 0-1 .45-1 1v1c0 .55.45 1 1 1 .55 0 1-.45 1-1v-1c0-.55-.45-1-1-1z"/></g><circle cx="11" cy="16.5" fill="#fff" r="1"/><circle cx="14" cy="18.5" fill="#fff" r="1"/><path d="m18.95 8.52c-.97-6.92-10.42-8.27-13.33-1.97-6.63 1.17-5.94 10.8.86 10.95h.52c.55 0 1-.45 1-1s-.45-1-1-1-.32 0-.32 0c-5.23-.24-4.56-7.22-.06-6.98.49.03.92-.28 1.04-.75.49-1.88 2.1-3.31 4.07-3.52 2.66-.35 5.34 2.22 5.28 4.85-.02.8.66 1.45 1.47 1.38.72-.06 1.46.12 1.89.7 1.55 2.06.11 4.32-1.86 4.32h-.52c-.55 0-1 .45-1 1s.45 1 1 1h.52c5.7-.15 6.09-8.31.43-8.98z" fill="#ebebeb"/></svg>