<svg viewBox="0 0 24 24" xmlns="http://www.w3.org/2000/svg"><path d="m12 5c-.55 0-1-.45-1-1v-1c0-.55.45-1 1-1s1 .45 1 1v1c0 .55-.45 1-1 1z" fill="#fc0"/><path d="m16 22h-1c-.41 0-.78-.25-.93-.63l-2-5c-.21-.51.04-1.09.56-1.3.51-.21 1.09.04 1.3.56l1.57 3.93 1.57-3.93c.21-.51.79-.76 1.3-.56.51.21.76.79.56 1.3l-2 5c-.15.38-.52.63-.93.63z" fill="#fff"/><path d="m8 22c-1.65 0-3-1.35-3-3v-3c0-.55.45-1 1-1s1 .45 1 1v3c0 .55.45 1 1 1s1-.45 1-1v-3c0-.55.45-1 1-1s1 .45 1 1v3c0 1.65-1.35 3-3 3z" fill="#fff"/><g fill="#fc0"><path d="m4 11h-1c-.55 0-1 .45-1 1s.45 1 1 1h1c.55 0 1-.45 1-1s-.45-1-1-1z"/><path d="m7.06 5.64-.7-.7c-.39-.39-1.02-.39-1.41 0s-.39 1.02 0 1.41l.7.7c.2.2.45.29.71.29s.51-.1.71-.29c.39-.39.39-1.02 0-1.41z"/><path d="m21 11h-1c-.55 0-1 .45-1 1s.45 1 1 1h1c.55 0 1-.45 1-1s-.45-1-1-1z"/><path d="m12 7c-2.76 0-5 2.24-5 5v1h10v-1c0-2.76-2.24-5-5-5z"/><path d="m19.06 4.94c-.39-.39-1.02-.39-1.41 0l-.7.7c-.39.39-.39 1.02 0 1.41.2.2.45.29.71.29s.51-.1.71-.29l.7-.7c.39-.39.39-1.02 0-1.41z"/></g></svg>