<svg viewBox="0 0 24 24" xmlns="http://www.w3.org/2000/svg"><g fill="#fff"><path d="m13.5 2c-1.46 0-2.71.9-3.24 2.17-.26.64.26 1.33.95 1.33.39 0 .75-.22.9-.57.23-.54.76-.93 1.39-.93.83 0 1.5.67 1.5 1.5s-.67 1.5-1.5 1.5h-8.5c-.55 0-1 .45-1 1s.45 1 1 1h8.5c1.93 0 3.5-1.57 3.5-3.5s-1.57-3.5-3.5-3.5z"/><path d="m18.5 18c-1.46 0-2.71-.9-3.24-2.17-.26-.64.26-1.33.95-1.33.39 0 .75.22.9.57.23.54.76.93 1.39.93.83 0 1.5-.67 1.5-1.5s-.67-1.5-1.5-1.5h-15.5c-.55 0-1-.45-1-1s.45-1 1-1h15.5c1.93 0 3.5 1.57 3.5 3.5s-1.57 3.5-3.5 3.5z"/><path d="m9.5 22c-1.46 0-2.71-.9-3.24-2.17-.26-.64.26-1.33.95-1.33.39 0 .75.22.9.57.23.54.76.93 1.39.93.83 0 1.5-.67 1.5-1.5s-.67-1.5-1.5-1.5h-5.5c-.55 0-1-.45-1-1s.45-1 1-1h5.5c1.93 0 3.5 1.57 3.5 3.5s-1.57 3.5-3.5 3.5z"/></g></svg>