<svg viewBox="0 0 24 24" xmlns="http://www.w3.org/2000/svg"><path d="m10 11.5c-.55 0-1-.45-1-1v-5c0-.55.45-1 1-1s1 .45 1 1v5c0 .55-.45 1-1 1z" fill="#e7324c"/><path d="m14 11c-.55 0-1-.45-1-1v-4c0-.55.45-1 1-1s1 .45 1 1v4c0 .55-.45 1-1 1z" fill="#e7324c"/><path d="m18.08 5.01-11.08-.92v-1.08c0-.55-.45-1-1-1s-1 .45-1 1v17h-1c-.55 0-1 .45-1 1s.45 1 1 1h4c.55 0 1-.45 1-1s-.45-1-1-1h-1v-8.08l11.08-.92c.52-.04.92-.48.92-1v-4c0-.52-.4-.95-.92-1zm-1.08 4.08-10 .83v-3.83l10 .83v2.16z" fill="#fff"/></svg>