<svg viewBox="0 0 24 24" xmlns="http://www.w3.org/2000/svg"><g fill="#fff"><path d="m15 11h-2v-2c0-.55-.45-1-1-1s-1 .45-1 1v2h-2c-.55 0-1 .45-1 1s.45 1 1 1h2v2c0 .55.45 1 1 1s1-.45 1-1v-2h2c.55 0 1-.45 1-1s-.45-1-1-1z"/><path d="m4 14c-.55 0-1-.45-1-1v-2c0-.55.45-1 1-1s1 .45 1 1v2c0 .55-.45 1-1 1z"/><path d="m20 14c-.55 0-1-.45-1-1v-2c0-.55.45-1 1-1s1 .45 1 1v2c0 .55-.45 1-1 1z"/><path d="m6 19h-1v-1c0-.55-.45-1-1-1s-1 .45-1 1v2c0 .55.45 1 1 1h2c.55 0 1-.45 1-1s-.45-1-1-1z"/><path d="m19 18v1h-1c-.55 0-1 .45-1 1s.45 1 1 1h2c.55 0 1-.45 1-1v-2c0-.55-.45-1-1-1s-1 .45-1 1z"/><path d="m10 20c0-.55.45-1 1-1h2c.55 0 1 .45 1 1s-.45 1-1 1h-2c-.55 0-1-.45-1-1z"/><path d="m18 5h1v1c0 .55.45 1 1 1s1-.45 1-1v-2c0-.55-.45-1-1-1h-2c-.55 0-1 .45-1 1s.45 1 1 1z"/><path d="m5 6v-1h1c.55 0 1-.45 1-1s-.45-1-1-1h-2c-.55 0-1 .45-1 1v2c0 .55.45 1 1 1s1-.45 1-1z"/><path d="m14 4c0 .55-.45 1-1 1h-2c-.55 0-1-.45-1-1s.45-1 1-1h2c.55 0 1 .45 1 1z"/></g></svg>