<svg viewBox="0 0 24 24" xmlns="http://www.w3.org/2000/svg"><g fill="#f4ebc8"><path d="m12.17 21.99c-3.93 0-7.59-2.37-9.1-6.17-.15-.37-.06-.8.22-1.08.29-.28.71-.37 1.08-.22 2.86 1.17 6.12.11 7.75-2.52 1.65-2.65 1.21-6.12-1.04-8.27-.3-.28-.39-.72-.24-1.1s.52-.63.93-.63h.26s.08 0 .13 0c4.96.04 9.15 3.78 9.75 8.7.66 4.89-2.43 9.6-7.19 10.95-.85.23-1.71.34-2.55.34zm-6.17-5.02c1.88 2.43 5.09 3.59 8.19 2.76 3.8-1.07 6.27-4.85 5.74-8.77-.4-3.31-2.83-5.95-5.94-6.73 1.53 2.69 1.54 6.1-.16 8.83-1.7 2.75-4.75 4.2-7.82 3.91z"/><path d="m7 9c-.55 0-1-.45-1-1s-.45-1-1-1-1-.45-1-1 .45-1 1-1 1-.45 1-1 .45-1 1-1 1 .45 1 1 .45 1 1 1 1 .45 1 1-.45 1-1 1-1 .45-1 1-.45 1-1 1z"/><path d="m4 13c-.55 0-1-.45-1-1-.55 0-1-.45-1-1s.45-1 1-1c0-.55.45-1 1-1s1 .45 1 1c.55 0 1 .45 1 1s-.45 1-1 1c0 .55-.45 1-1 1z"/></g></svg>