<svg viewBox="0 0 24 24" xmlns="http://www.w3.org/2000/svg"><g fill="#ebebeb"><path d="m6.14 19.5c-5.17.08-5.61-7.44-.6-8.16.56-1.27 1.67-2.25 3.04-2.62 2.71-.91 6.23.96 6.38 3.97 4.23.53 3.92 6.73-.37 6.81h-8.32c-.04 0-.08 0-.12 0zm.04-6.21c-1.93-.11-2.87 2.36-1.62 3.64.39.38.98.57 1.68.57h8.34c1.86-.03 1.86-2.79 0-2.83h-.69c-.62.02-1.12-.61-.98-1.21.46-2.06-2.01-3.44-3.78-2.82-.95.26-1.66.98-1.9 1.9-.12.45-.51.8-.99.75-.02 0-.04 0-.06 0z"/><path d="m19.03 13.5c-1.32-.02-1.31-1.98 0-2 .4 0 .77-.15 1.05-.42.92-.86.21-2.44-1.05-2.4h-.71c-.62.02-1.12-.61-.98-1.21.46-2.11-2.13-3.43-3.92-2.82-.9.24-1.69 1.1-1.95 2.11-.14.53-.68.86-1.22.71-.53-.14-.85-.69-.71-1.22.44-1.7 1.79-3.12 3.35-3.53 2.75-.89 6.33.92 6.49 3.97 4.34.52 4 6.74-.35 6.81z"/></g></svg>