<svg viewBox="0 0 24 24" xmlns="http://www.w3.org/2000/svg"><g fill="#e7324c"><path d="m20 6h-4v-2c0-1.1-.9-2-2-2h-4c-1.1 0-2 .9-2 2v2h-4c-.55 0-1 .45-1 1s.45 1 1 1h.08l.92 11c0 1.65 1.35 3 3 3h8c1.65 0 3-1.35 3-2.92l.92-11.08h.08c.55 0 1-.45 1-1s-.45-1-1-1zm-10-2h4v2h-4zm7 15c0 .55-.45 1-1 1h-8c-.55 0-1-.45-1-1.08l-.91-10.92h11.83l-.91 11z"/><path d="m10 10c-.55 0-1 .45-1 1v6c0 .55.45 1 1 1s1-.45 1-1v-6c0-.55-.45-1-1-1z"/><path d="m14 10c-.55 0-1 .45-1 1v6c0 .55.45 1 1 1s1-.45 1-1v-6c0-.55-.45-1-1-1z"/></g></svg>