<svg viewBox="0 0 24 24" xmlns="http://www.w3.org/2000/svg"><g fill="#fff"><path d="m17 16c-.55 0-1 .45-1 1v1c0 .55-.45 1-1 1h-9c-.55 0-1-.45-1-1v-9c0-.55.45-1 1-1h1c.55 0 1-.45 1-1s-.45-1-1-1h-1c-1.65 0-3 1.35-3 3v9c0 1.65 1.35 3 3 3h9c1.65 0 3-1.35 3-3v-1c0-.55-.45-1-1-1z"/><path d="m22 5.1c0-.83-.32-1.61-.91-2.19-1.17-1.17-3.21-1.17-4.38 0l-1.34 1.34s-.05.03-.07.05-.03.05-.05.07l-6.95 6.93c-.19.19-.29.44-.29.71v3c0 .55.45 1 1 1h3c.27 0 .52-.11.71-.29l6.92-6.95s.05-.03.07-.05.03-.05.05-.08l1.34-1.34c.58-.59.91-1.36.91-2.19zm-10.42 8.9h-1.58v-1.58l6.01-5.99 1.56 1.56zm8.09-8.12s0 0 0 0l-.69.69-1.56-1.56.69-.69c.42-.42 1.14-.42 1.56 0 .21.21.32.48.32.78s-.11.57-.32.78z"/></g></svg>