<svg viewBox="0 0 24 24" xmlns="http://www.w3.org/2000/svg"><path d="m18 13c-.69 0-1.37-.17-1.99-.51-.93-.51-1.59-1.33-1.87-2.32s-.14-2.02.4-2.9c0-.01.02-.03.03-.04l2.6-3.82c.37-.54 1.31-.54 1.68 0l2.6 3.82c.74 1.22.74 2.68.03 3.86-.53.88-1.39 1.52-2.43 1.78-.35.09-.7.13-1.05.13zm-1.74-4.76c-.26.44-.32.94-.19 1.43.14.49.47.9.93 1.16s1 .32 1.52.19.95-.45 1.21-.89c.36-.59.36-1.32 0-1.91l-1.74-2.73-1.74 2.74z" fill="#3cabf8"/><g fill="#fff"><path d="m13 5h-8c-.55 0-1-.45-1-1s.45-1 1-1h8c.55 0 1 .45 1 1s-.45 1-1 1z"/><path d="m11 9h-8c-.55 0-1-.45-1-1s.45-1 1-1h8c.55 0 1 .45 1 1s-.45 1-1 1z"/><path d="m10 13h-5c-.55 0-1-.45-1-1s.45-1 1-1h5c.55 0 1 .45 1 1s-.45 1-1 1z"/><path d="m21 17h-5c-.55 0-1-.45-1-1s.45-1 1-1h5c.55 0 1 .45 1 1s-.45 1-1 1zm-9 0h-9c-.55 0-1-.45-1-1s.45-1 1-1h9c.55 0 1 .45 1 1s-.45 1-1 1z"/><path d="m19 21h-7c-.55 0-1-.45-1-1s.45-1 1-1h7c.55 0 1 .45 1 1s-.45 1-1 1zm-11 0h-3c-.55 0-1-.45-1-1s.45-1 1-1h3c.55 0 1 .45 1 1s-.45 1-1 1z"/></g></svg>