<svg viewBox="0 0 24 24" xmlns="http://www.w3.org/2000/svg"><g fill="#007AFF"><path d="m20 22h-16c-.55 0-1-.45-1-1s.45-1 1-1h16c.55 0 1 .45 1 1s-.45 1-1 1z"/><path d="m19 21v-11c0-.55.45-1 1-1s1 .45 1 1v11c0 .55-.45 1-1 1s-1-.45-1-1z"/><path d="m3 21v-11c0-.55.45-1 1-1s1 .45 1 1v11c0 .55-.45 1-1 1s-1-.45-1-1z"/><path d="m4 9h3c.55 0 1 .45 1 1s-.45 1-1 1h-3c-.55 0-1-.45-1-1s.45-1 1-1z"/><path d="m17 9h3c.55 0 1 .45 1 1s-.45 1-1 1h-3c-.55 0-1-.45-1-1s.45-1 1-1z"/><path d="m15.71 5.29-3-3c-.39-.39-1.02-.39-1.41 0l-3 3c-.39.39-.39 1.02 0 1.41s1.02.39 1.41 0l1.29-1.29v8.59c0 .55.45 1 1 1s1-.45 1-1v-8.59l1.29 1.29c.2.2.45.29.71.29s.51-.1.71-.29c.39-.39.39-1.02 0-1.41z"/></g></svg>