
<svg xmlns="http://www.w3.org/2000/svg" viewBox="0 0 24 24">
  <path fill="#fff" d="m12,15.02c-2.21,0-4-1.79-4-4s1.79-4,4-4,4,1.79,4,4-1.79,4-4,4Zm0-6c-1.1,0-2,.9-2,2s.9,2,2,2,2-.9,2-2-.9-2-2-2Z"/>
  <path fill="#3cabf8" d="m12,22.5c-.77,0-1.54-.29-2.12-.88l-4.24-4.24c-1.7-1.7-2.64-3.96-2.64-6.36s.94-4.66,2.64-6.36c3.51-3.51,9.22-3.51,12.73,0s3.51,9.22,0,12.73l-4.24,4.24c-.58.58-1.35.88-2.12.88Zm0-18.48c-1.79,0-3.58.68-4.95,2.05s-2.05,3.08-2.05,4.95.73,3.63,2.05,4.95l4.24,4.24c.39.39,1.03.39,1.41,0l4.24-4.24c2.73-2.73,2.73-7.17,0-9.9-1.36-1.36-3.16-2.05-4.95-2.05Z"/>
</svg>