<svg viewBox="0 0 24 24" xmlns="http://www.w3.org/2000/svg"><g fill="#fff"><path d="m12 13c-2.21 0-4-1.79-4-4s1.79-4 4-4 4 1.79 4 4-1.79 4-4 4zm0-6c-1.1 0-2 .9-2 2s.9 2 2 2 2-.9 2-2-.9-2-2-2z"/><path d="m18.68 13.84c1.63-2.45 1.85-5.63.57-8.31-1.23-2.57-3.62-4.25-6.39-4.5-.54-.05-1.1-.05-1.64 0-2.77.25-5.16 1.93-6.39 4.5-1.28 2.68-1.06 5.86.57 8.31l5.8 8.71s0 0 0 0c.07.1.16.18.25.25.01 0 .02.02.03.03.01 0 .03.01.04.02.06.03.11.06.18.08.03 0 .05.02.08.03.08.02.17.04.25.04h.02c.09 0 .17-.01.25-.04.03 0 .05-.02.08-.03.06-.02.12-.05.18-.08.01 0 .03-.01.04-.02.01 0 .02-.02.03-.03.09-.07.18-.15.25-.25s0 0 0 0zm-12.04-7.44c.93-1.95 2.67-3.18 4.77-3.37.42-.04.86-.04 1.28 0 2.09.19 3.83 1.42 4.77 3.37.99 2.07.83 4.44-.43 6.33l-4.98 7.46-4.98-7.46c-1.26-1.89-1.42-4.26-.43-6.33z"/></g></svg>