<svg viewBox="0 0 24 24" xmlns="http://www.w3.org/2000/svg"><path d="m21 22h-18c-.55 0-1-.45-1-1s.45-1 1-1h18c.55 0 1 .45 1 1s-.45 1-1 1z" fill="#fff"/><path d="m12 10s-.08 0-.13 0c-.19-.02-.38-.1-.53-.24-.02-.02-.04-.03-.05-.05l-3-3c-.39-.39-.39-1.02 0-1.41s1.02-.39 1.41 0l1.29 1.29v-3.59c0-.55.45-1 1-1s1 .45 1 1v3.59l1.29-1.29c.39-.39 1.02-.39 1.41 0s.39 1.02 0 1.41l-3 3c-.18.18-.41.28-.64.29s-.04 0-.07 0z" fill="#fff"/><path d="m16 18c-.55 0-1-.45-1-1 0-1.65-1.35-3-3-3s-3 1.35-3 3c0 .55-.45 1-1 1s-1-.45-1-1c0-2.76 2.24-5 5-5s5 2.24 5 5c0 .55-.45 1-1 1z" fill="#f4ebc8"/></svg>