<svg viewBox="0 0 24 24" xmlns="http://www.w3.org/2000/svg"><path d="m20 11.5c-.49 0-.92-.36-.99-.86-.54-3.88-4.13-6.61-8.01-6.07-1.95.27-3.69 1.35-4.81 2.92h1.81c.55 0 1 .45 1 1s-.45 1-1 1h-3.48s-.03 0-.05 0h-.48c-.55 0-1-.45-1-1v-4.01c0-.55.45-1 1-1s1 .45 1 1v1.28c1.43-1.71 3.47-2.87 5.72-3.18 4.98-.69 9.58 2.8 10.27 7.77.08.55-.31 1.05-.85 1.13-.05 0-.09 0-.14 0z" fill="#3cabf8"/><path d="m12.02 21.5c-4.47 0-8.38-3.31-9.01-7.86-.08-.55.31-1.05.85-1.13.55-.08 1.05.31 1.13.85.54 3.88 4.13 6.6 8.01 6.06 1.95-.27 3.69-1.35 4.81-2.92h-1.81c-.55 0-1-.45-1-1s.45-1 1-1h3.48s.03 0 .05 0h.48c.55 0 1 .45 1 1v4.01c0 .55-.45 1-1 1s-1-.45-1-1v-1.28c-1.43 1.71-3.47 2.87-5.72 3.18-.42.06-.84.09-1.26.09z" fill="#fff"/></svg>