<svg viewBox="0 0 24 24" xmlns="http://www.w3.org/2000/svg"><path d="m12 22c-.21 0-.43-.02-.64-.08-.99-.24-1.76-1.01-2-2-.09-.39-.48-.63-.88-.53-.07.02-.14.05-.21.09-1.29.78-2.97.37-3.75-.91-.53-.87-.53-1.96 0-2.83.21-.34.1-.79-.24-1-.06-.04-.13-.07-.21-.08-1.46-.36-2.36-1.83-2-3.29.24-.99 1.01-1.76 2-2 .39-.09.63-.49.53-.88-.02-.07-.05-.14-.09-.21-.78-1.29-.37-2.96.91-3.75.87-.53 1.96-.53 2.83 0 .17.1.36.13.55.09s.35-.16.45-.33c.04-.07.07-.13.09-.21.36-1.46 1.83-2.36 3.29-2 .99.24 1.76 1.01 2 2 .09.39.49.63.88.53.07-.02.14-.05.21-.09 1.29-.78 2.97-.37 3.75.91.53.87.53 1.96 0 2.83-.21.34-.1.79.24 1 .06.04.13.07.21.08 1.46.36 2.36 1.83 2 3.29-.24.99-1.01 1.76-2 2-.39.09-.63.49-.53.88.02.07.05.14.09.21.78 1.29.37 2.96-.91 3.75-.87.53-1.96.53-2.83 0-.34-.21-.79-.1-1 .24-.04.06-.07.13-.08.21-.3 1.24-1.42 2.08-2.65 2.08zm-3.35-4.63c1.23 0 2.35.84 2.65 2.08.06.26.27.47.53.53.39.09.78-.15.88-.53.07-.27.17-.53.32-.77.78-1.28 2.46-1.69 3.74-.91.23.14.52.14.75 0 .34-.21.45-.65.24-1-.15-.24-.25-.5-.32-.77-.35-1.46.55-2.94 2.01-3.29.26-.06.47-.27.53-.53.09-.39-.14-.78-.53-.88-.27-.07-.53-.17-.77-.32-1.28-.78-1.69-2.46-.91-3.74.14-.23.14-.52 0-.75-.21-.34-.65-.45-1-.24-.24.15-.5.25-.77.32-1.47.35-2.94-.55-3.29-2-.06-.26-.27-.47-.53-.53-.39-.09-.78.14-.88.53-.07.27-.17.53-.32.78-.38.62-.98 1.06-1.68 1.23-.71.17-1.44.06-2.06-.32-.23-.14-.52-.14-.75 0-.34.21-.45.65-.24 1 .15.24.25.5.32.77.35 1.46-.55 2.94-2.01 3.29-.26.06-.47.27-.53.53-.09.39.14.78.53.88.27.07.53.17.77.32 1.28.78 1.69 2.46.91 3.74-.14.23-.14.52 0 .75.21.34.65.45 1 .24.24-.15.5-.25.77-.32.21-.05.43-.08.64-.08z" fill="#fff"/><path d="m12 16c-2.21 0-4-1.79-4-4s1.79-4 4-4 4 1.79 4 4-1.79 4-4 4zm0-6c-1.1 0-2 .9-2 2s.9 2 2 2 2-.9 2-2-.9-2-2-2z" fill="#3cabf8"/></svg>