<svg viewBox="0 0 24 24" xmlns="http://www.w3.org/2000/svg"><path d="m21 18h-1c-.55 0-1-.45-1-1s.45-1 1-1h1c.55 0 1 .45 1 1s-.45 1-1 1zm-17 0h-1c-.55 0-1-.45-1-1s.45-1 1-1h1c.55 0 1 .45 1 1s-.45 1-1 1zm13.7-5.7c-.26 0-.51-.1-.71-.29-.39-.39-.39-1.02 0-1.41l.7-.7c.39-.39 1.02-.39 1.41 0s.39 1.02 0 1.41l-.7.7c-.2.2-.45.29-.71.29zm-11.4 0c-.26 0-.51-.1-.71-.29l-.7-.7c-.39-.39-.39-1.02 0-1.41s1.02-.39 1.41 0l.7.7c.39.39.39 1.02 0 1.41-.2.2-.45.29-.71.29z" fill="#fc0"/><path d="m21 22h-18c-.55 0-1-.45-1-1s.45-1 1-1h18c.55 0 1 .45 1 1s-.45 1-1 1z" fill="#fff"/><path d="m12 10c-.55 0-1-.45-1-1v-3.59l-1.29 1.29c-.39.39-1.02.39-1.41 0s-.39-1.02 0-1.41l3-3s.04-.04.05-.05c.15-.13.34-.21.53-.24h.19c.23.02.46.11.64.29l3 3c.39.39.39 1.02 0 1.41s-1.02.39-1.41 0l-1.29-1.29v3.59c0 .55-.45 1-1 1z" fill="#fff"/><g fill="#fc0"><path d="m21 18h-1c-.55 0-1-.45-1-1s.45-1 1-1h1c.55 0 1 .45 1 1s-.45 1-1 1zm-17 0h-1c-.55 0-1-.45-1-1s.45-1 1-1h1c.55 0 1 .45 1 1s-.45 1-1 1zm13.7-5.7c-.26 0-.51-.1-.71-.29-.39-.39-.39-1.02 0-1.41l.7-.7c.39-.39 1.02-.39 1.41 0s.39 1.02 0 1.41l-.7.7c-.2.2-.45.29-.71.29zm-11.4 0c-.26 0-.51-.1-.71-.29l-.7-.7c-.39-.39-.39-1.02 0-1.41s1.02-.39 1.41 0l.7.7c.39.39.39 1.02 0 1.41-.2.2-.45.29-.71.29z"/><path d="m12 12c-2.76 0-5 2.24-5 5 0 .55.45 1 1 1s1-.45 1-1c0-1.66 1.34-3 3-3s3 1.34 3 3c0 .55.45 1 1 1s1-.45 1-1c0-2.76-2.24-5-5-5z"/></g></svg>