<svg viewBox="0 0 24 24" xmlns="http://www.w3.org/2000/svg"><path d="m12 16c-.55 0-1-.45-1-1s.45-1 1-1 1 .44 1 .99c0 .56-.45 1.01-1 1.01zm0-4c-.55 0-1-.45-1-1v-2c0-.55.45-1 1-1s1 .45 1 1v2c0 .55-.45 1-1 1z" fill="#fff"/><path d="m4.9 20s-.04 0-.05 0c-.34-.02-.66-.09-.97-.22-.74-.3-1.32-.87-1.64-1.61-.31-.74-.32-1.55-.02-2.29.02-.04.04-.08.06-.12l7.11-12.23c.26-.47.67-.88 1.16-1.15 1.45-.8 3.28-.28 4.08 1.17l7.09 12.21s.04.08.06.13c.14.35.22.72.22 1.1.01 1.65-1.33 3-2.98 3.01zm-.84-3.31c-.08.23-.07.48.03.71.1.25.3.44.54.54.1.04.21.07.33.07h.06 14c.26 0 .51-.11.7-.3s.29-.44.29-.71c0-.11-.02-.21-.05-.31l-7.06-12.16c-.28-.5-.89-.67-1.37-.41-.16.09-.3.23-.39.39l-7.07 12.18z" fill="#e7324c"/></svg>