<svg viewBox="0 0 24 24" xmlns="http://www.w3.org/2000/svg"><g fill="#fff"><path d="m9 11h-4c-1.1 0-2-.9-2-2v-4c0-1.1.9-2 2-2h4c1.1 0 2 .9 2 2v4c0 1.1-.9 2-2 2zm-4-6v4h4v-4z"/><path d="m19 11h-4c-1.1 0-2-.9-2-2v-4c0-1.1.9-2 2-2h4c1.1 0 2 .9 2 2v4c0 1.1-.9 2-2 2zm-4-6v4h4v-4z"/><path d="m9 21h-4c-1.1 0-2-.9-2-2v-4c0-1.1.9-2 2-2h4c1.1 0 2 .9 2 2v4c0 1.1-.9 2-2 2zm-4-6v4h4v-4z"/><path d="m17 21c-.55 0-1-.45-1-1v-2h-2c-.55 0-1-.45-1-1s.45-1 1-1h2v-2c0-.55.45-1 1-1s1 .45 1 1v2h2c.55 0 1 .45 1 1s-.45 1-1 1h-2v2c0 .55-.45 1-1 1z"/></g></svg>