<svg viewBox="0 0 24 24" xmlns="http://www.w3.org/2000/svg"><path d="m10 15c-.26 0-.52-.1-.71-.29-.27-.27-.36-.66-.24-1.02l1-3c.1-.3.33-.53.63-.63l3-1c.36-.12.76-.03 1.02.24s.36.66.24 1.02l-1 3c-.1.3-.33.53-.63.63l-3 1c-.1.04-.21.05-.32.05zm1.79-3.21-.21.63.63-.21.21-.63z" fill="#e7324c"/><path d="m12 2c-5.51 0-10 4.49-10 10s4.49 10 10 10 10-4.49 10-10-4.49-10-10-10zm1 17.93v-.93c0-.55-.45-1-1-1s-1 .45-1 1v.93c-3.61-.45-6.48-3.32-6.93-6.93h.93c.55 0 1-.45 1-1s-.45-1-1-1h-.93c.45-3.61 3.32-6.48 6.93-6.93v.93c0 .55.45 1 1 1s1-.45 1-1v-.93c3.61.45 6.48 3.32 6.93 6.93h-.93c-.55 0-1 .45-1 1s.45 1 1 1h.93c-.45 3.61-3.32 6.48-6.93 6.93z" fill="#fff"/></svg>